<svg xmlns="http://www.w3.org/2000/svg" width="1386.667" height="1424" viewBox="0 0 1040 1068" preserveAspectRatio="xMidYMid meet" xmlns:v="https://vecta.io/nano"><path d="M503.5 2.2c-4 11.7-21.2 57.2-22.5 59.8-1.7 3.3-3.8 5-8.2 6.4-1 .3-1.8 1.3-1.8 2.2 0 1.4.8 1.6 5.3 1 2.8-.3 8.7-.6 13-.6 6.2 0 7.7-.3 7.7-1.5 0-.8-.8-1.5-1.9-1.5-1 0-3.2-.5-5-1.1-2.6-.9-3.1-1.6-3.1-4.3 0-1.8.9-6 2.1-9.4l2.1-6.3 12.6.3 12.6.3 3.3 8.4c3.8 9.3 3.5 10.5-2.2 11.5-2.1.4-3.5 1.3-3.5 2.1 0 1.2 1.7 1.5 8.4 1.5 12.9 0 20.5-1 19.9-2.6-.3-.8-1.3-1.4-2.4-1.4-4.5 0-6.9-4.2-19.3-35-10.3-25.2-12.8-30.6-14.5-30.8-1.2-.2-2.3.3-2.6 1zm5.3 26.6l5.2 13.5c0 .4-4.8.7-10.6.7-8.1 0-10.5-.3-10.2-1.3.3-.6 2.5-6.7 4.9-13.4 2.4-6.8 4.6-12.3 4.9-12.3s2.9 5.8 5.8 12.8zm79.3-22.7c-18.2 3.6-30.3 23.3-27 44.1 3.2 19.6 21.1 31.7 39.3 26.4 8.5-2.5 19.4-13.3 15.7-15.6-1-.5-2.3.4-4.5 3.3-4.7 6.2-10.7 8.9-18.3 8.5-12.4-.8-20.5-10.6-21.1-25.8-1.1-22.8 10.9-39.9 26.3-37.6 8.3 1.3 13.2 7.9 16 21.8.6 3.1 3.1 3.8 3.9 1 .2-.9.7-5.1 1.1-9.2.3-4.1.8-8.7 1.1-10.3.5-2.2.2-2.7-1.3-2.7-1.1 0-2.4.5-3 1.1-.8.8-2.8.3-7.5-1.9-7-3.4-14-4.4-20.7-3.1zM431 8.9c-8.9 2-12.5 3.1-12.5 4.2 0 .9 1.3 1.5 3.5 1.7 6.4.5 7.7 1.1 9.5 4.7 1.6 3.5 9.9 40.4 9.2 41.1-.2.2-11.2-9.3-24.5-21.1S391.2 18 390.4 18c-4 0-18.4 3.6-18.1 4.5.2.5 2.5 1.5 5.1 2.2 5.5 1.4 8 3.2 9.5 7.1 2.1 5.5 9.2 42.1 8.9 45.8-.2 3-1 4.3-3.6 6.1-1.8 1.2-3.8 2.4-4.5 2.6-.8.3-.9.8-.1 1.6.7.8 4.4.4 14.2-1.6 14.1-3 16.6-4.7 8.5-5.9-5.7-.8-7.2-1.8-9-6.2-1.6-4-9.5-40-9.1-41.8.2-.6 12.1 9.3 26.6 22.1 20 17.7 26.8 23.2 28.3 22.8 1.2-.4 1.8-1.2 1.5-2.2C447 69.8 437 20.4 437 18.2c0-3.6 2.2-6.6 6-8.2 2.9-1.2 4.2-4.1 1.8-3.9-.7.1-6.9 1.3-13.8 2.8zm219 11.3c0 .7 1.8 2.3 4 3.6 3.1 1.8 4 2.9 4 5 0 4.4-13.6 53.3-15.1 54.3-.8.6-3.3.8-5.6.5-3.3-.4-4.3-.2-4.3.9 0 .8 1.7 1.9 4.3 2.5l24 6.6c3.4 1.1 1.7-2.6-2.3-4.6-3.3-1.7-4-2.5-4-5 0-3.7 12.8-52 14.3-53.8.7-.9 2.7-1.3 5.9-1 3.9.2 4.8 0 4.6-1.2-.2-1-4.7-2.7-13.8-5.2-15.3-4.2-16-4.3-16-2.6zM721.3 47c-9.7 2-18.4 8.9-23.5 18.7-5.8 11-7 19.5-4.2 29.3 4.6 16.4 22.5 26.8 38.9 22.5s27.9-20.4 27.8-39.1c0-15.5-10.4-28-26.1-31.3-5.9-1.2-6.9-1.2-12.9-.1zm17.5 5.5c13.8 5.8 16.1 21.8 6 42-4.4 8.7-9 13.9-15 16.9-6.7 3.3-11.2 3.3-17.9-.2-3.9-2-5.8-3.8-7.6-7.1-4.5-8.6-2.4-24 5.2-36.6 8.6-14.2 18.6-19.4 29.3-15zm-446.3-.8c-1.1.2-9.5 4.1-18.7 8.5-17.1 8.3-21 11.5-12.4 10.3 3.8-.6 4.5-.4 6.3 1.9 4.2 5.3 25.4 48.6 24.8 50.5-.3 1.1-1.9 2.8-3.5 3.8-1.9 1.2-2.6 2.3-2.1 3.1.5.9 4.9-.9 16.7-7 18.8-9.7 25.7-15.7 29.4-25.5 6.2-16.5-3.3-38.2-19.5-44.2-5.3-2-15.3-2.7-21-1.4zm13.6 7.9c13.8 6.9 23.8 30 18.5 42.7-2.7 6.6-12.3 13.7-18.5 13.7-4.2 0-6-2.7-19.4-29.6l-11.6-23.1 6.7-3.1c3.7-1.7 7.8-3.3 9.2-3.5 4.3-.7 10.3.5 15.1 2.9zm490.3 22.8c-.3.7.7 3.1 2.1 5.2 4.4 6.4 3.5 8.7-10.9 29.3-15.8 22.5-17 23.5-24.3 20.9-2.3-.8-3.6-.9-4.3-.2-.8.8 2.5 3.6 10.6 9.2 8 5.6 12 7.8 12.5 7 .4-.6-.6-2.8-2.3-4.9-4.5-5.6-3.6-8 9.9-27.6C804.9 99.2 804 100 804 108.5l1 35.3c.8 27.2 1.5 32.2 4 30.7.5-.3 7.5-10.1 15.7-21.8 21-30.1 22-31 29.3-27.2 2 1 3.1 1.2 3.6.4.9-1.5-1.3-3.4-12.8-11.3-10.4-7.1-12.5-7.1-7.4.1 2.7 3.8 2.8 4.6 1.9 7.7-.6 1.9-6.2 10.8-12.4 19.8l-11.4 16.3-.6-6c-.4-3.3-.7-13.2-.8-22s-.4-21-.8-27.2l-.6-11.2-7.9-5.5c-5.7-4-8-5.2-8.4-4.2zm-593.3 22.9c-.8 1.1 1.1 8.6 8 31.3 5 16.4 9.1 31.8 9.2 34.1.1 2.9-.5 5-2 7.1s-1.9 3.2-1.1 4c.9.9 9-4.8 20.7-14.5.3-.2 0-.8-.6-1.4-.8-.8-2-.6-4.3.6-5.2 2.7-7.2 1.8-9.8-4.7-4.3-11-4.5-10.4 6.3-18.6l9.6-7.4 8 4.9c4.8 2.9 7.9 5.5 7.9 6.5 0 .9-1.1 3-2.5 4.6-4.3 5.1-.9 4.8 5.8-.4l10.9-8.3c5.1-3.9 6.4-6.8 2.6-5.7-7.7 2.2-6.9 2.6-37.7-15.8L204.5 104c-.1 0-.8.6-1.4 1.3zm19 20.4c6.3 3.8 11.6 7.2 11.8 7.7s-3.2 3.8-7.5 7.3l-7.9 6.3-4.2-13.2c-4.2-13.2-4.7-14.8-3.9-14.8.2 0 5.5 3 11.7 6.7zm-74.6 36.9c-7.4 2.7-13.5 7.8-25 21-8.1 9.4-11.1 13.4-10.3 14.2s1.8.6 3.6-.8c1.4-1.1 3.5-2 4.8-2 1.5 0 8.9 5.8 22.6 17.6 11.2 9.7 20.7 18.5 21.2 19.5.6 1.2.2 2.8-1.2 5.3-1.9 3.2-1.9 4.6-.1 4.6 1.3 0 21.6-23.7 24.3-28.5 8.5-14.4 6.7-30.5-4.6-41.8-7-7-15.5-10.7-24.3-10.6-3.8 0-8.8.7-11 1.5zm17.1 10.4c11.1 5.5 20.8 17.2 22.1 26.9 1.3 9.6-9.2 24.7-15.7 22.6-2-.6-43.2-36-43.8-37.6-.5-1.3 8.8-10.8 12.3-12.6 8-4.2 15.7-4 25.1.7zm704.9 6.5c-16.7 7.2-30.4 12.4-32.3 12.4-1.9.1-4.7-.7-6.3-1.6-1.8-1.1-3.2-1.4-3.8-.8s2.4 4.4 8.1 10.3c9.3 9.6 12.7 11 8.6 3.6-1.2-2.2-1.9-4.8-1.5-5.7.6-1.5 13.4-8.7 15.5-8.7.5 0 4.6 4 9.1 9l8.2 8.9-4 8.6c-2.2 4.7-4.5 8.5-5.2 8.5-.6 0-2.7-1-4.6-2.1-6.9-4.3-4.9-.2 4.8 10.1 6.8 7.1 10.2 10.1 10.9 9.4s.6-2-.5-4c-.8-1.6-1.5-3.9-1.5-5 0-1.2 6.3-15.8 14-32.4 7.8-16.7 13.8-31 13.6-31.7-.3-.7-1.3-1.3-2.3-1.2s-14.8 5.7-30.8 12.4zm19.2-2.3c-1.4 3.3-11 24.4-11.4 24.7-.2.3-3.7-2.8-7.8-6.9s-7.2-7.6-6.9-7.9c.7-.7 24.6-11 25.8-11 .4-.1.6.5.3 1.1zm-307 36.1c-.9 21.8-6.5 43.4-14.9 58.4-1.6 2.9-15.6 20.4-31.1 39-52.1 62.5-66.3 81.1-78.4 102.8-24.1 43.3-30.6 84.6-16.3 104.4 1.8 2.4 3.3 4.1 3.5 3.9s1.3-4.8 2.4-10.2c8.2-39.1 33.2-85.3 58.1-107.3 4.7-4.1 10.4-8.3 11.4-8.3.3 0-2.3 3.5-5.7 7.7-30.7 38.1-51 79.8-59.8 122.8-2.9 14.5-3.6 38.8-1.5 53.1 5.7 37.8 20.6 68.5 39.9 81.8 4.6 3.2 6 3.7 8.7 3.1 1.7-.4 3-1 2.8-1.4s-3.5-3.5-7.4-6.9c-18-15.3-27.4-35-27.5-57.3-.1-20.5 5.6-39.4 18.5-61.3 12.4-21.1 22.8-32.8 45.1-51.1 20.2-16.6 41.1-37.3 39.3-39-.2-.3-1.9 0-3.8.5-6 1.7-20.2 2.3-27 1-6.8-1.2-13-3.6-13-5 0-.5 3.7-2.1 8.3-3.6 36.8-12.1 64.1-38.5 75.7-73.3 4.5-13.2 4.4-13.4-3.7-9.4-8.6 4.2-18.4 6.3-29.3 6.2-14.5-.2-14.6-.5-3.8-7.2 26.1-16.2 43.1-37.8 48.9-62.2 2.8-11.7 2.3-31.8-1-43.5-3-10.1-9.9-24.1-15.9-32-5.4-7.1-14.8-16.2-19.2-18.5l-2.7-1.4-.6 14.2zm358.8 5.7c-.3.5-.2 2.6.4 4.6.5 1.9.7 4.2.4 4.9-.5 1.6-44.6 30.5-47.4 31.2-1.1.3-3-.6-4.8-2.4s-3.4-2.7-4.2-2.3c-.8.6 3.4 7.8 13.6 23.4l15.1 22.6c1.6 0 17.3-9.7 17.1-10.5-.2-.6-3.5-.9-8.1-.6-9.9.4-12.5-.7-17.5-7.9-5.1-7.2-6.2-10.1-4.9-12.4 1-1.8 39.5-27.5 45.5-30.4 3.3-1.6 3.4-1.5 6.6 1.6 1.9 1.9 3.7 2.8 4.4 2.4.9-.6-1.1-4.4-6.7-13-4.3-6.7-8.1-12.2-8.4-12.2s-.8.4-1.1 1zM84.2 234.7c-5.3 8.1-7.9 13-7.3 13.6.7.7 2.3-.1 4.6-2.2 2-1.7 4.2-3.1 5-3.1 1.6 0 43.8 27 47 30.1 1.7 1.7 1.8 2.2.6 5.1-1.7 4.3-1.8 6-.6 6.4 1.5.6 17.6-24.9 16.5-26-.6-.6-2.2.2-4.3 2.2-1.8 1.8-4.1 3.2-5.2 3.2-2 0-42.4-25.8-46.5-29.6-2.3-2.2-2.3-2.6-1.1-5.6 1.7-4.3 1.8-6 .6-6.5-.6-.2-4.8 5.4-9.3 12.4zm-25.8 43.7c-.3.8-.1 2.4.6 3.5.6 1.2.7 2.1.3 2.1-1.8 0-8.7 7.7-10.4 11.5-2.1 4.5-2.5 12.9-.8 17.2 3.4 8.9 15.1 13.7 24.3 9.9 1.9-.8 7.1-4.9 11.7-9.1 4.6-4.3 9.4-8.1 10.7-8.6 7.8-3 17.4 1.5 18.8 8.7 1 5.5-3.3 13.6-9.2 17-4.1 2.4-6 2.8-12.8 2.9-11.6.2-11.2 1.9 1.4 7.4 7.7 3.4 10.4 4.1 11.3 3.2s.9-1.6-.1-3.1c-1.1-1.8-.7-2.4 2.8-5.7 5.2-4.6 8.6-10.5 10-17 3.6-16.5-12.7-30.6-27-23.3-2.1 1.1-7.2 5.1-11.3 8.9-11 10.2-15.3 11.9-21.7 8.6-6.2-3.2-7.7-9.7-3.9-16.5 3.4-5.9 7-7.5 17.1-7.4 6.2 0 8.9-.3 9.2-1.3.3-.7.2-1.4-.2-1.7-1.3-.8-19.3-8.6-19.8-8.6-.2 0-.7.6-1 1.4zM996 322.3c0 2.9-.6 4.9-1.7 5.9-1 .8-13.2 5.4-27.2 10.2-23.9 8.1-25.5 8.5-27.7 7.1-1.3-.8-2.6-2.6-3-4-.7-2.7-2.2-3.3-3-1.2-.5 1.5 8.5 27.6 12 34.6 3.2 6.3 10.2 13.2 16.3 16.1 15.6 7.3 37.1 0 45.1-15.5 2-3.9 2.6-6.9 3-13.8.4-8.7.3-9.2-5.4-26.3-6-17.7-8.4-21.4-8.4-13.1zm6.6 18.4c5 12.1 3.7 21.9-4.3 30.4-6.8 7.3-20.2 12.9-30.6 12.9-11.9 0-22.6-10.3-22.7-21.6 0-2.6.6-4.7 1.6-5.5 1.3-1.1 22.1-8.7 54.1-19.8.2-.1 1 1.6 1.9 3.6zM33.6 359c-3.4 1-7 4.2-9.6 8.5-1.6 2.6-12 36.1-12 38.7 0 1.9 2.7.5 4.5-2.5 1.1-1.8 3-3.3 4.3-3.5 2.4-.4 52 13.4 54 15 .6.6 1.2 3 1.2 5.4 0 3 .4 4.4 1.4 4.4.8 0 2.6-4.4 5-12.8 4.1-14.4 4.2-15.2 2.1-15.2-.8 0-1.5.6-1.5 1.4s-1.1 2.7-2.4 4.2l-2.3 2.8-11.9-3.4-12.3-3.6c-.2-.2 0-1.9.3-3.8.6-3.3 1.1-3.7 8.9-6.7 4.5-1.7 12.5-4.5 17.7-6.2 5.2-1.6 10-3.5 10.6-4.1.9-.9 5.4-15.1 5.4-17 0-1.7-2.7-.2-4.2 2.4-2.3 4.1-5.9 6-22 12.1-15 5.6-15.8 5.6-15.8-.3 0-10.3-11.5-18.7-21.4-15.8zM44 372.3c7.1 3.8 9.6 11.3 6.9 20.9-.5 2.1-1.1 3.8-1.2 3.8-.9 0-28.1-8.1-28.5-8.4-.3-.3.2-3.2 1.1-6.3 3.2-11.4 11.7-15.3 21.7-10zm980 41.6c0 5-1.7 6.7-8.3 8-30.7 6.1-48.1 9.2-49.3 8.7-.9-.3-2.3-2.4-3.1-4.6-1.6-3.9-2.7-4.8-3.7-3.1-.6.9 9.7 54.7 10.6 55.7.4.3 5 0 10.3-.6 12.2-1.6 12.3-2.9.1-6.7-3.8-1.2-6.6-2.8-7.9-4.4-4-5.4-6.2-22.4-3.2-24.9 2.1-1.7 25.7-6.2 26.8-5.1.5.5 1 4.2 1.1 8.2.1 7.2.1 7.3-3.2 9.5-1.8 1.3-3.8 2.4-4.4 2.6-.5.2-.9 1-.7 1.9.3 1.2 2.2 1.1 13.2-.9 10.9-2.1 12.7-2.7 12.7-4.3 0-1.1-.3-1.8-.7-1.8-3.7.6-7.7-.4-9.7-2.5-2.2-2.1-5.5-13-4.3-14.2.4-.5 24.3-5.3 26.4-5.4 1.4 0 4.8 18 3.9 21.4-.3 1.3-2.6 4.4-5.1 6.8-4.4 4.3-5.7 6.8-3.2 6.8 2.1-.1 13.8-2.7 14.3-3.3.5-.4-7.8-45.4-9.2-50-1-3.4-3.4-1.9-3.4 2.2zm-969 31c0 .9 2 2.7 4.5 4s5.9 3.9 7.5 5.8c2.6 2.9 3 4.2 3 9.2 0 8.2-1.7 16.4-3.8 17.9-1.7 1.4-8.3 1.2-23.1-.5l-5.4-.6.7-6c.8-7.9 2.5-10.3 8.3-11.9 2.5-.7 4.8-1.8 5-2.4.4-1.2-3.8-1.9-17.9-3-7.6-.6-8.8-.5-8.8.9 0 .8 1.3 2 2.9 2.5 5.4 1.9 7.1 4.6 7.1 11.1 0 9.3.9 8.9-14.6 7.5-7.4-.6-13.7-1.4-14-1.7-.2-.2 0-4.6.6-9.8 1.2-11.1 2.6-13.4 9.8-16.9 8.1-3.9 7-5.2-6-6.3-5.7-.5-5.1-2.6-7.3 24.3l-2.1 23.7c-.5 4.3-.3 5.3.8 5.3.8 0 2.2-1.8 3.1-4 .8-2.2 2.3-4.3 3.3-4.7s13.7.3 28.3 1.6c29.6 2.5 30.1 2.7 30.1 9.3 0 5.1 2.6 5.2 3.4 0 .9-6.3 4.8-53.3 4.5-53.6-.2-.2-4.8-1-10.1-1.8-8.9-1.4-9.8-1.3-9.8.1zm913.8 82.8c-.2 14.8-.1 27.1.2 27.4.3.4 4.9 1 10.3 1.4 11.7.8 12.7-.4 4.2-5-3.1-1.6-6.8-4.2-8.3-5.8-2.5-2.7-2.7-3.4-2.7-12.1 0-13.9-2.4-13 30.9-12.4 27.6.5 27.9.5 29.8 2.8 1 1.2 1.8 3.3 1.8 4.6s.6 2.4 1.3 2.4c1.1 0 1.6-2.7 2-10.7 1-15.7.9-18.3-.7-18.3-.7 0-2.1 2-3 4.4-1 2.5-2.5 4.7-3.4 4.9-2.2.5-52-.3-54.9-.9-1.7-.3-2.6-1.5-3.4-4.9-.6-2.5-1.7-4.5-2.4-4.5-1.1 0-1.4 5.7-1.7 26.7zM1.6 530.2c1.5 18.4 1.6 18.8 3 18.8.8 0 1.4-1 1.4-2.4s.4-3.6 1-5c.8-2.2 1.6-2.6 4.8-2.6 4.5 0 46.2 12.6 46.2 13.9 0 .3-10.7 5.4-23.7 11.3-16.7 7.5-24 10.4-24.9 9.7-.6-.5-1.5-2.5-1.8-4.4-.4-2.2-1.3-3.5-2.2-3.5-1.3 0-1.5.9-1 4.7.3 2.7.8 9.2 1.2 14.5.5 7.4.9 9.5 2 9.1.7-.2 1.6-1.7 1.9-3.3.3-1.5 1.6-3.7 2.8-4.9 1.3-1.1 15.5-8.1 31.7-15.5 22.1-10 29.6-13.9 29.8-15.3.2-1.6-3.6-3.1-29-11.2-36.2-11.5-37.4-12-39.3-16.6-.9-1.9-2.2-3.5-3-3.5-1.2 0-1.4 1.2-.9 6.2zM962 600.5c0 .8.5 2.4 1.2 3.5 1 1.5.9 2.2-.4 3.7-.9 1-2.8 4.3-4.2 7.3-5.3 11.4-2.7 24.2 6.3 30.5 3.7 2.6 5.1 3 11.1 3 6.1 0 7.2-.3 10.6-3.1 2.1-1.7 6.6-7.1 10-12 7-10.2 10.9-13.4 16.6-13.4 3.2 0 4.7.7 7.5 3.5 3.3 3.3 3.5 3.9 3.1 8.6-.3 2.8-1.4 6.3-2.5 7.7-2.6 3.7-9.1 6.8-15.7 7.6-3.4.5-5.6 1.3-6 2.2-.7 1.8-.6 1.8 11.7 4.2 10.3 2.1 11.8 1.7 9.7-2.3-1.1-2-.9-2.8 1.4-5.7 3.1-4.1 5.6-10.9 5.6-15.2 0-12.4-10.7-22.1-21.9-20.1-6.2 1.1-10.5 4.8-17.4 15.2-8.5 12.7-13.6 15.5-22 11.9-5.3-2.2-7.1-5-7.1-10.9.2-8.5 3.9-13.8 12.4-17.6 2.5-1.1 5.9-2.1 7.5-2.1 3.7 0 6-1.4 5.3-3.2-.4-.9-4.4-2-10.9-3.1-12.4-2.1-11.9-2.1-11.9-.2zm-884.5 3.2c-.6.2-.9 1.8-.7 3.6.8 6.7-.8 7.4-28.4 13.3-13.7 2.9-26.2 5.4-27.7 5.4-2.4 0-3.1-.7-4.8-4.5-1.9-4.2-2.9-5.2-4.1-4-.2.3 1 7.1 2.7 15.2 2.3 10.6 3.6 14.8 4.6 14.8s1.5-1.4 1.7-4.7c.2-2.5.9-5.1 1.5-5.7 1.9-1.5 52.8-12.3 55.3-11.6 1.4.3 2.8 2 3.8 4.5.9 2.2 2.2 4 3 4 1.1 0 .8-2.7-1.5-13.8-3.2-15-3.9-17.1-5.4-16.5zm-8 66.8c-13.2 5.2-26.2 9.9-29 10.6l-4.9 1.2-3.6-4.1c-6-6.7-6.3-4-1 9.8 5.1 13.5 7.7 16.2 7.1 7.7-.3-5.5 1.1-7.8 6.9-10.7 4.9-2.5 35.2-14.1 35.7-13.7.2.3-7.6 12.8-17.2 27.9l-17.6 27.5 2.5 6.4 3.5 9.1c1.5 4.1 3.7 2.7 3.3-2.1-.5-5 1.8-9.4 6-11.4 9.1-4.3 40.7-15.8 43.7-15.9 2.9-.1 4.1.5 6.8 3.7 5.8 6.7 5.9 3.3.6-10.5-5.4-13.8-7.3-15.9-7.3-8.2 0 6.5-.5 7.8-4.3 10.1-3.7 2.2-39.7 16.3-40.8 15.9-.4-.2 7.8-13.6 18.2-29.9 17.9-28 20.4-33.1 16.5-32.8-.6 0-11.9 4.3-25.1 9.4zm875.7 10.6c-15.3 7.6-20.4 32-8.9 42.7 1.3 1.3 10.5 5.9 20.3 10.3 9.9 4.4 19.4 9.2 21.2 10.6 3.1 2.4 3.3 2.9 3 7.6-.2 2.8.1 5.2.7 5.4s3.5-5.4 6.6-12.4c6.1-13.8 6.1-17.2 0-10.1-3.3 3.8-3.7 4-7.7 3.4-4.5-.6-34.4-13.5-39.6-17-6.8-4.6-8.5-13.4-4.4-22.1 3.4-7.3 6.5-9.7 13-10.3 5.1-.4 6.7.1 26.3 8.7 11.4 5.1 21.4 10 22.1 10.9.6.9 1 2.4.7 3.4s-.7 2.6-1 3.7 0 2.1.9 2.4c1 .4 2.9-2.8 7-12 3.1-6.9 5.6-12.9 5.6-13.4 0-1.8-2.8-.8-4.4 1.5-2.9 4.5-4.4 4.2-27.1-5.8-23.7-10.6-26.7-11.2-34.3-7.5zM741.5 730c-23.4 5-42.7 21.3-49.8 41.9-2.8 8-3.4 23.8-1.3 33.3 2.7 12 6.7 19.2 15.6 27.9 6.8 6.7 9.5 8.6 20.2 13.8 6.7 3.3 20.2 9 29.8 12.7 23.6 8.9 28.9 11.6 35.4 17.5 10.6 9.7 15.1 21.3 14.4 36.9-.7 15-6 24.5-16.8 30.4-7.4 4-14.2 5.6-24.7 5.6-11.7 0-18-1.3-26.9-5.6-17.4-8.5-31.6-27.5-40-53.6l-2.8-8.8h-6.4-6.4l.6 3.7c.3 2.1.8 18.2 1.1 35.8s.8 33.2 1.1 34.8c.5 2.6.8 2.7 6.5 2.7h5.9l3-4.7c1.6-2.7 3.1-5.2 3.3-5.8.2-.5 3 .4 6.3 2.2 7.2 3.8 21.5 8.9 30.9 11 4.5 1 11.8 1.5 20.5 1.5 16.3 0 25-2 38.9-8.8 7.7-3.8 11-6.2 17.6-12.8 13-12.9 18.2-24.4 19.2-42.2.7-12.7-.8-21.8-5.2-30.9-8.3-17.2-23.1-27.5-60.4-41.7-25.1-9.6-33.5-14-41.2-21.7-8.8-8.8-11.2-14.9-11.3-28.1-.1-8.4.2-10.1 2.7-15.1 5.6-11.5 17.2-18.9 30.9-19.7 28.5-1.7 46.7 14.6 58.9 52.5l4.2 13.3h6.1 6.1l-.2-26.7-.9-37.1-.6-10.2h-6.1-6.2l-2.8 5c-1.6 2.8-3 5-3.2 5-.1 0-4.7-2.2-10.1-4.9-16.2-8.1-20.7-9.3-37.4-9.7-8-.2-16.3.1-18.5.6zM182 739c0 3.2.5 5.2 1.3 5.4.6.2 4.1.9 7.7 1.5 9.3 1.8 16 5.7 18.8 11.1l2.2 4.4V834c0 61.3.3 73.5 1.5 78.9 4.6 19.5 19.6 35.6 41 44.1 13.7 5.5 19.2 6.4 40 6.4 16.6 0 20-.3 27-2.2 10.2-2.8 24.4-9.9 31.7-15.7 10.4-8.3 20.1-23.8 22.7-36.3.7-3.5 1.1-23.8 1.1-60 .1-85.1 1.3-93.8 14.4-99.8 2.8-1.3 8.5-2.8 12.6-3.5 4.1-.6 8.1-1.3 8.8-1.5s1.2-2.2 1.2-5.4v-5h-46-46v5c0 3.2.5 5.2 1.3 5.4.6.2 5 1 9.7 1.9 11.5 2.2 19.9 6.5 22.8 11.5 5.5 9.9 5.6 10.7 6 77.8.3 68.8.3 69.3-6.1 82.3-4.3 8.8-14.1 18.7-22.7 22.8-17 8.2-45.2 8.4-60.9.6-7.9-4-16.5-12.8-20.1-20.5-5.9-12.6-6-13.5-6-91.3 0-65.6.1-71.3 1.8-74.4 2.6-5.1 5.9-7 15.2-8.7l10.8-2c1.9-.4 2.2-1 2.2-5.4v-5h-47-47v5zm239 0c0 3.2.5 5.2 1.3 5.4.6.2 3.5.8 6.2 1.5 7.8 1.8 20.8 8.6 24.7 13 2 2.1 4.6 6.5 5.9 9.7l2.4 5.9V847c0 66.6-.1 73-1.8 79-3.5 12.8-7.4 15.9-25 20.2l-9.7 2.3v5.2 5.3h46 46v-5.3-5.2l-9.8-2.3c-21.5-5-26.6-10.3-29.2-30.5-.7-5.3-1-31.4-.8-73.5l.3-65.2 68 91.9 68 92h7.3l7.2.1v-92.3c.1-96 .3-102.6 4.4-110.4 3.3-6.5 11.7-10.7 26.1-13l5-.8.3-5.3.3-5.2h-45.6-45.6l.3 5.2.3 5.1 6.4 1.3c8.3 1.7 17.8 4.9 21.7 7.3 3.8 2.3 6.9 8.4 9.1 17.7 1.3 5.9 1.6 16.6 2 70.6l-.4 63.8c-.4 0-29.1-38.5-63.8-85.5l-63-85.5h-32.2H421v5zm485.7 9.6c-11.8 18.9-12.8 20.7-11.8 21.7.7.7 1.9 0 4-2.1 1.6-1.8 3.5-3.2 4.1-3.2 1.3 0 18.4 10.3 20.9 12.6 1.1 1 1.1 1.7-.4 4.2-2 3.4-3.4 3.6-27.5 4.8l-13.5.7-4.7 7.6c-5.1 8.3-4.7 11 .8 6.1 4-3.5 5.6-3.8 24.4-5.3l15.1-1.3-.6 6.2c-.6 5-.3 7 1.3 10.6 2.9 6.6 7.2 9.3 14.9 9.3 5.3 0 6.6-.4 10-3.1 5.1-4.1 24.4-34.4 23-36.1-.7-1-1.6-.5-3.7 1.7-1.5 1.7-3.6 3-4.5 3-2.3 0-48.5-28.9-49.3-30.8-.3-.8.1-3 .7-4.9 2-5.4-.1-6.5-3.2-1.7zm35.2 40c6.7 4.2 12.1 7.9 12.1 8.3s-1.3 2.8-3 5.4c-5.4 8.5-12 10.7-19.5 6.4-6.2-3.5-8.8-8.1-8.3-14.7.4-5.2 3.9-13 5.8-13 .5 0 6.3 3.4 12.9 7.6zM119 750.7c-.8.4-8.7 5.1-17.5 10.6-15.8 9.9-21.1 12.7-23.9 12.7-.7 0-2.9-1.4-4.6-3-2.1-2-3.7-2.7-4.3-2.1-1.3 1.3 13 24.2 14.8 23.5 1.1-.5 1.1-1.3-.1-4.7-1.9-5.5-1.2-7.9 3.3-11.5 5.1-4 27.8-18.1 32.8-20.3 8.7-4 16.8-1 22.3 8.1 4.9 8.3 4.2 15-2.5 21.1-2.8 2.6-35.4 23.2-38.7 24.5-1.2.5-2.7-.3-4.9-2.4-1.9-1.8-3.7-2.8-4.4-2.4-.8.5 1.1 4.5 6.2 12.7 4 6.6 7.7 11.9 8.2 11.7.4-.1.8-2.6.8-5.5v-5.2l6-3.8 20.5-13c11.5-7.3 14.9-10 16.7-13.2 6.2-10.9-1.2-30.2-14-36.4-4.2-2-13.1-2.8-16.7-1.4z"/></svg>