<?xml version="1.0" standalone="no"?>
<!DOCTYPE svg PUBLIC "-//W3C//DTD SVG 20010904//EN"
 "http://www.w3.org/TR/2001/REC-SVG-20010904/DTD/svg10.dtd">
<svg version="1.0" xmlns="http://www.w3.org/2000/svg"
 width="325.000000pt" height="80.000000pt" viewBox="0 0 325.000000 80.000000"
 preserveAspectRatio="xMidYMid meet">

<g transform="translate(0.000000,80.000000) scale(0.100000,-0.100000)"
fill="#000000" stroke="none">
<path d="M260 707 c0 -49 -8 -64 -97 -172 -93 -113 -126 -177 -121 -236 3 -33
6 -39 11 -24 22 58 61 125 85 146 l26 24 -17 -25 c-40 -57 -81 -156 -85 -204
-5 -65 12 -128 44 -163 l26 -28 -21 29 c-53 73 -26 166 74 251 l58 50 -34 5
-34 5 45 25 c29 16 53 40 68 67 l23 42 -38 -6 -38 -6 37 35 c20 19 40 47 44
62 11 46 -2 107 -30 135 l-26 26 0 -38z"/>
<path d="M1563 570 c-45 -27 -66 -73 -60 -129 6 -58 45 -93 142 -130 78 -30
109 -63 109 -116 0 -53 -32 -80 -94 -80 -40 0 -54 5 -81 30 -17 17 -40 49 -51
73 -10 23 -23 42 -28 42 -6 0 -10 -38 -10 -85 0 -66 3 -85 14 -85 8 0 17 7 20
15 5 14 9 14 37 -1 49 -25 137 -22 187 6 86 48 98 168 22 227 -8 7 -49 26 -92
43 -85 35 -105 52 -114 98 -5 26 -1 36 25 63 28 27 37 31 68 26 47 -8 80 -40
101 -99 26 -74 42 -62 42 32 0 63 -3 80 -14 80 -8 0 -18 -4 -21 -10 -4 -6 -17
-4 -35 5 -42 22 -128 19 -167 -5z"/>
<path d="M400 573 c0 -5 14 -16 30 -25 l30 -17 0 -173 c0 -197 7 -220 76 -254
54 -26 158 -25 204 2 69 40 74 56 80 251 5 158 7 176 24 189 11 8 28 14 38 14
10 0 18 5 18 10 0 6 -40 10 -100 10 -97 0 -130 -12 -71 -25 50 -11 56 -26 60
-173 5 -199 -18 -250 -116 -259 -62 -6 -98 9 -123 49 -18 29 -20 51 -20 195 0
172 6 193 51 193 10 0 19 5 19 10 0 6 -40 10 -100 10 -55 0 -100 -3 -100 -7z"/>
<path d="M920 570 c0 -5 11 -12 25 -16 14 -3 34 -18 45 -31 18 -23 20 -41 20
-184 0 -87 -4 -169 -9 -182 -6 -16 -21 -28 -40 -32 -17 -4 -31 -13 -31 -21 0
-11 20 -14 100 -14 78 0 100 3 100 14 0 7 -13 16 -30 19 -54 11 -61 36 -58
208 l3 154 145 -197 c90 -123 152 -197 163 -198 16 0 17 17 17 211 0 120 4
218 10 229 5 10 23 21 40 25 60 13 28 25 -70 25 -97 0 -130 -12 -71 -25 51
-11 56 -25 59 -187 2 -81 0 -148 -5 -148 -4 0 -66 81 -138 180 l-130 179 -72
0 c-42 1 -73 -3 -73 -9z"/>
</g>
</svg>
